<svg version="1.2" baseProfile="tiny" id="EdgeSVG_lR3y4" x="0px" y="0px" width="26.372px" height="27.033px" viewBox="0 0 26.372 27.033" xmlns:xlink="http://www.w3.org/1999/xlink" xmlns="http://www.w3.org/2000/svg">
  <linearGradient id="SVGID_2_" gradientUnits="userSpaceOnUse" x1="11.0981" y1="1.1958" x2="15.3936" y2="25.5563">
    <stop offset="0" style="stop-color:#FFFFFF;stop-opacity:0.35"/>
    <stop offset="0.1765" style="stop-color:#FFFFFF;stop-opacity:0"/>
    <stop offset="0.2227" style="stop-color:#FBFBFB;stop-opacity:0.0698"/>
    <stop offset="0.2677" style="stop-color:#EFEFEF;stop-opacity:0.1378"/>
    <stop offset="0.3123" style="stop-color:#DCDCDC;stop-opacity:0.2053"/>
    <stop offset="0.3567" style="stop-color:#C0C0C0;stop-opacity:0.2723"/>
    <stop offset="0.4009" style="stop-color:#9D9D9D;stop-opacity:0.339"/>
    <stop offset="0.4449" style="stop-color:#717171;stop-opacity:0.4055"/>
    <stop offset="0.4889" style="stop-color:#3D3D3D;stop-opacity:0.4719"/>
    <stop offset="0.5317" style="stop-color:#030303;stop-opacity:0.5367"/>
    <stop offset="0.5339" style="stop-color:#000000;stop-opacity:0.54"/>
    <stop offset="0.5439" style="stop-color:#000000;stop-opacity:0.5635"/>
    <stop offset="0.6018" style="stop-color:#000000;stop-opacity:0.7"/>
    <stop offset="1" style="stop-color:#000000;stop-opacity:0.3"/>
  </linearGradient>
  <path fill="url(#SVGID_2_)" d="M25.041,15.492l-0.773-0.327c-0.253-0.107-0.454-0.42-0.446-0.695l-0.011-2.232&#xD;&#xA;&#x9;&#x9;c-0.009-0.274,0.191-0.586,0.445-0.691l0.768-0.319c0.254-0.105,0.402-0.409,0.329-0.674l-0.673-2.03&#xD;&#xA;&#x9;&#x9;c-0.084-0.262-0.372-0.425-0.641-0.364l-0.837,0.194c-0.269,0.062-0.606-0.078-0.753-0.311l-1.316-1.782&#xD;&#xA;&#x9;&#x9;c-0.18-0.208-0.209-0.571-0.065-0.806l0.448-0.732c0.144-0.235,0.085-0.567-0.131-0.738l-1.737-1.245&#xD;&#xA;&#x9;&#x9;c-0.223-0.162-0.552-0.125-0.732,0.083l-0.599,0.688c-0.181,0.208-0.537,0.294-0.792,0.191l-2.071-0.647&#xD;&#xA;&#x9;&#x9;c-0.269-0.063-0.505-0.338-0.527-0.612l-0.072-0.919C14.831,1.247,14.589,1.013,14.314,1l-2.142,0.014&#xD;&#xA;&#x9;&#x9;c-0.275,0-0.52,0.224-0.543,0.498l-0.084,0.963c-0.024,0.274-0.262,0.554-0.528,0.622L8.997,3.77&#xD;&#xA;&#x9;&#x9;C8.743,3.876,8.39,3.793,8.211,3.584L7.58,2.846C7.401,2.637,7.067,2.59,6.838,2.742L5.113,4.011&#xD;&#xA;&#x9;&#x9;C4.89,4.172,4.824,4.497,4.966,4.732l0.52,0.863c0.142,0.235,0.113,0.601-0.063,0.812L4.193,8.117&#xD;&#xA;&#x9;&#x9;c-0.144,0.234-0.48,0.374-0.748,0.31l-0.97-0.232C2.208,8.13,1.897,8.283,1.784,8.534l-0.75,2.061&#xD;&#xA;&#x9;&#x9;c-0.098,0.257,0.027,0.562,0.277,0.677l0.8,0.37c0.25,0.115,0.454,0.209,0.454,0.208v0c0,0.506,0.197,2.677,0.197,2.677&#xD;&#xA;&#x9;&#x9;c0.025,0.274-0.161,0.587-0.414,0.696l-0.877,0.38c-0.252,0.109-0.396,0.414-0.318,0.678l0.67,1.946&#xD;&#xA;&#x9;&#x9;c0.087,0.262,0.377,0.425,0.646,0.363l0.972-0.224c0.269-0.062,0.605,0.08,0.75,0.314l1.297,1.785&#xD;&#xA;&#x9;&#x9;c0.178,0.21,0.207,0.574,0.064,0.811l-0.485,0.809c-0.142,0.236-0.081,0.568,0.134,0.739l1.67,1.188&#xD;&#xA;&#x9;&#x9;c0.222,0.162,0.551,0.124,0.732-0.083l0.619-0.714c0.18-0.207,0.535-0.291,0.789-0.185l2.133,0.693&#xD;&#xA;&#x9;&#x9;c0.268,0.064,0.506,0.343,0.529,0.616l0.078,0.894c0.023,0.273,0.268,0.508,0.543,0.52l2.047-0.02c0.275,0,0.52-0.225,0.543-0.498&#xD;&#xA;&#x9;&#x9;l0.078-0.888c0.023-0.273,0.262-0.551,0.529-0.615l2.177-0.701c0.254-0.105,0.609-0.021,0.789,0.187l0.553,0.636&#xD;&#xA;&#x9;&#x9;c0.18,0.208,0.515,0.254,0.744,0.102l1.647-1.219c0.223-0.162,0.288-0.486,0.146-0.723l-0.434-0.721&#xD;&#xA;&#x9;&#x9;c-0.142-0.236-0.113-0.601,0.064-0.812l1.352-1.88c0.143-0.235,0.478-0.377,0.746-0.314l0.794,0.185&#xD;&#xA;&#x9;&#x9;c0.269,0.063,0.566-0.098,0.662-0.355l0.614-1.954C25.432,15.901,25.294,15.599,25.041,15.492z M13.082,20.269&#xD;&#xA;&#x9;&#x9;c-3.729,0-6.752-3.023-6.752-6.753c0-3.729,3.023-6.752,6.752-6.752c3.729,0,6.752,3.023,6.752,6.752&#xD;&#xA;&#x9;&#x9;C19.834,17.246,16.812,20.269,13.082,20.269z"/>
  <radialGradient id="SVGID_3_" cx="13.082" cy="13.5161" r="10.165" gradientUnits="userSpaceOnUse">
    <stop offset="0" style="stop-color:#FFFFFF;stop-opacity:0.45"/>
    <stop offset="0.8371" style="stop-color:#FFFFFF;stop-opacity:0.15"/>
  </radialGradient>
  <path fill="url(#SVGID_3_)" d="M23.247,13.517c0,5.614-4.551,10.165-10.165,10.165c-5.614,0-10.166-4.551-10.166-10.165&#xD;&#xA;&#x9;&#x9;c0-5.613,4.552-10.165,10.166-10.165C18.696,3.352,23.247,7.903,23.247,13.517z M13.082,6.764c-3.729,0-6.753,3.023-6.753,6.752&#xD;&#xA;&#x9;&#x9;c0,3.729,3.023,6.753,6.753,6.753s6.752-3.023,6.752-6.753C19.834,9.788,16.812,6.764,13.082,6.764z"/>
  <linearGradient id="SVGID_4_" gradientUnits="userSpaceOnUse" x1="14.4277" y1="21.1519" x2="11.7352" y2="5.8816">
    <stop offset="0" style="stop-color:#FFFFFF;stop-opacity:0.35"/>
    <stop offset="0.1765" style="stop-color:#FFFFFF;stop-opacity:0"/>
    <stop offset="0.2227" style="stop-color:#FBFBFB;stop-opacity:0.0698"/>
    <stop offset="0.2677" style="stop-color:#EFEFEF;stop-opacity:0.1378"/>
    <stop offset="0.3123" style="stop-color:#DCDCDC;stop-opacity:0.2053"/>
    <stop offset="0.3567" style="stop-color:#C0C0C0;stop-opacity:0.2723"/>
    <stop offset="0.4009" style="stop-color:#9D9D9D;stop-opacity:0.339"/>
    <stop offset="0.4449" style="stop-color:#717171;stop-opacity:0.4055"/>
    <stop offset="0.4889" style="stop-color:#3D3D3D;stop-opacity:0.4719"/>
    <stop offset="0.5317" style="stop-color:#030303;stop-opacity:0.5367"/>
    <stop offset="0.5339" style="stop-color:#000000;stop-opacity:0.54"/>
    <stop offset="0.5439" style="stop-color:#000000;stop-opacity:0.5635"/>
    <stop offset="0.6018" style="stop-color:#000000;stop-opacity:0.7"/>
    <stop offset="1" style="stop-color:#000000;stop-opacity:0.3"/>
  </linearGradient>
  <path fill="url(#SVGID_4_)" d="M13.082,21.269c-4.275,0-7.753-3.478-7.753-7.753c0-4.274,3.478-7.752,7.753-7.752&#xD;&#xA;&#x9;&#x9;c4.274,0,7.752,3.478,7.752,7.752C20.834,17.792,17.356,21.269,13.082,21.269z M13.082,6.764c-3.729,0-6.753,3.023-6.753,6.752&#xD;&#xA;&#x9;&#x9;c0,3.729,3.023,6.753,6.753,6.753s6.752-3.023,6.752-6.753C19.834,9.788,16.812,6.764,13.082,6.764z"/>
</svg>