<svg version="1.2" baseProfile="tiny" id="EdgeSVG_lR3y4" x="0px" y="0px" width="26.372px" height="27.033px" viewBox="0 0 26.372 27.033" xmlns:xlink="http://www.w3.org/1999/xlink" xmlns="http://www.w3.org/2000/svg">
  <linearGradient id="SVGID_1_" gradientUnits="userSpaceOnUse" x1="0" y1="13.5161" x2="26.3721" y2="13.5161">
    <stop offset="0.5339" style="stop-color:#000000;stop-opacity:0.5"/>
    <stop offset="0.6024" style="stop-color:#000000;stop-opacity:0.5"/>
    <stop offset="1" style="stop-color:#000000;stop-opacity:0.5"/>
  </linearGradient>
  <path fill="url(#SVGID_1_)" d="M12.251,27.033c-0.773,0-1.431-0.803-1.497-1.574l-0.061-0.762l-1.853-0.635l-0.483,0.54&#xD;&#xA;&#x9;&#x9;c-0.296,0.337-0.722,0.52-1.172,0.52c-0.33,0-0.644-0.106-0.906-0.298L4.62,23.64c-0.646-0.512-0.808-1.407-0.412-2.068l0.384-0.64&#xD;&#xA;&#x9;&#x9;l-1.131-1.554l-0.769,0.186c-0.111,0.025-0.226,0.038-0.34,0.038c-0.663,0-1.271-0.437-1.479-1.061l-0.666-1.937&#xD;&#xA;&#x9;&#x9;c-0.232-0.788,0.155-1.611,0.866-1.92l0.673-0.292c-0.036-0.412-0.109-1.257-0.151-1.888l-0.704-0.326&#xD;&#xA;&#x9;&#x9;c-0.729-0.336-1.078-1.188-0.792-1.94l0.746-2.047C1.127,7.559,1.721,7.18,2.349,7.18c0.122,0,0.243,0.014,0.361,0.042l0.766,0.183&#xD;&#xA;&#x9;&#x9;l1.05-1.464L4.109,5.248C3.698,4.565,3.882,3.666,4.529,3.2l1.716-1.263c0.293-0.195,0.59-0.284,0.899-0.284&#xD;&#xA;&#x9;&#x9;c0.465,0,0.901,0.198,1.196,0.543l0.493,0.577l1.734-0.581l0.067-0.768c0.067-0.79,0.744-1.411,1.539-1.411L14.308,0&#xD;&#xA;&#x9;&#x9;c0.825,0.037,1.479,0.669,1.543,1.44l0.056,0.709l1.784,0.555l0.47-0.541c0.292-0.335,0.718-0.527,1.17-0.527&#xD;&#xA;&#x9;&#x9;c0.33,0,0.644,0.101,0.906,0.292l1.731,1.241c0.647,0.513,0.806,1.41,0.401,2.073L22.03,5.796l1.145,1.545l0.639-0.157&#xD;&#xA;&#x9;&#x9;c0.113-0.026,0.227-0.039,0.341-0.039c0.668,0,1.275,0.441,1.478,1.071l0.67,2.021c0.221,0.795-0.179,1.614-0.895,1.912&#xD;&#xA;&#x9;&#x9;l-0.597,0.248l0.01,1.916l0.61,0.258c0.732,0.311,1.112,1.146,0.867,1.9l-0.611,1.945c-0.243,0.659-0.838,1.069-1.497,1.069&#xD;&#xA;&#x9;&#x9;c-0.117,0-0.233-0.014-0.346-0.04l-0.593-0.138l-1.177,1.641l0.33,0.55c0.409,0.682,0.227,1.58-0.414,2.047l-1.642,1.214&#xD;&#xA;&#x9;&#x9;c-0.295,0.197-0.593,0.286-0.903,0.286c-0.462,0-0.897-0.196-1.192-0.538l-0.419-0.481l-1.894,0.612l-0.061,0.686&#xD;&#xA;&#x9;&#x9;c-0.067,0.79-0.744,1.55-1.539,1.55l-2.063,0.159H12.251z M13.082,7.764c-3.172,0-5.753,2.58-5.753,5.752s2.581,5.753,5.753,5.753&#xD;&#xA;&#x9;&#x9;c3.172,0,5.752-2.581,5.752-5.753S16.254,7.764,13.082,7.764z"/>
</svg>