<svg version="1.2" baseProfile="tiny" viewBox="0 0 26.372 27.033" xmlns:xlink="http://www.w3.org/1999/xlink" xmlns="http://www.w3.org/2000/svg">
<path style="fill:#ffffff;" d="M25.041,15.4921L24.268,15.165C24.0149,15.0579,23.8139,14.7449,23.8221,14.47L23.811,12.2381C23.802,11.964,24.0019,11.652,24.2559,11.5469L25.0241,11.2279C25.2781,11.123,25.426,10.8189,25.353,10.554L24.68,8.524C24.5961,8.2621,24.3081,8.0991,24.0389,8.1599L23.2021,8.354C22.9331,8.4159,22.5961,8.2759,22.4489,8.0431L21.1329,6.2611C20.9531,6.053,20.9241,5.6899,21.0681,5.455L21.5161,4.7229C21.6601,4.488,21.601,4.1561,21.3851,3.9849L19.6479,2.7401C19.4251,2.5779,19.096,2.6149,18.9161,2.8231L18.3169,3.511C18.136,3.7189,17.78,3.8049,17.525,3.7019L15.454,3.055C15.185,2.992,14.949,2.7171,14.9271,2.443L14.8551,1.5241C14.8311,1.247,14.589,1.0129,14.3139,1.0L12.172,1.014C11.8969,1.014,11.6519,1.2381,11.629,1.512L11.5449,2.4749C11.5209,2.749,11.283,3.029,11.0169,3.0969L8.9971,3.77C8.7439,3.876,8.39,3.793,8.2109,3.584L7.5801,2.846C7.401,2.6371,7.0669,2.59,6.838,2.742L5.113,4.0109C4.8899,4.172,4.824,4.4969,4.9661,4.7321L5.4859,5.595C5.628,5.8299,5.599,6.196,5.4229,6.4071L4.1929,8.1169C4.0489,8.351,3.7129,8.4911,3.445,8.427L2.475,8.1951C2.2081,8.1299,1.8969,8.2829,1.7841,8.534L1.034,10.595C0.9359,10.8521,1.0609,11.1571,1.311,11.272L2.1111,11.642C2.3611,11.7569,2.5649,11.851,2.5649,11.8499L2.5649,11.8499C2.5649,12.356,2.7619,14.527,2.7619,14.527C2.787,14.8011,2.6011,15.1139,2.3479,15.2231L1.471,15.6029C1.2189,15.7121,1.0749,16.0171,1.1519,16.2809L1.821,18.227C1.908,18.489,2.1989,18.652,2.4671,18.5901L3.4389,18.366C3.7071,18.304,4.0439,18.446,4.1889,18.6801L5.4851,20.4651C5.6631,20.6751,5.6929,21.039,5.55,21.2761L5.064,22.0849C4.9221,22.3209,4.9819,22.6531,5.1979,22.824L6.867,24.0121C7.0891,24.174,7.419,24.1359,7.5991,23.9291L8.218,23.2151C8.399,23.0081,8.7539,22.924,9.0079,23.03L11.1401,23.7231C11.4069,23.7869,11.6451,24.0661,11.6691,24.3389L11.7469,25.2329C11.7709,25.5059,12.0151,25.7411,12.2899,25.753L14.3369,25.733C14.6119,25.733,14.8569,25.5081,14.8799,25.235L14.9579,24.347C14.9809,24.074,15.2201,23.7961,15.487,23.732L17.664,23.031C17.9179,22.9259,18.2729,23.01,18.453,23.2181L19.006,23.8539C19.1859,24.0621,19.5211,24.108,19.75,23.9561L21.3969,22.7369C21.62,22.575,21.6849,22.2511,21.543,22.0141L21.1089,21.2931C20.9671,21.0571,20.9961,20.6919,21.173,20.481L22.5251,18.6009C22.6681,18.366,23.003,18.224,23.2709,18.287L24.065,18.4719C24.334,18.5349,24.6309,18.3741,24.7269,18.117L25.3411,16.163C25.4321,15.9011,25.2939,15.5991,25.041,15.4921M13.0821,20.2691C9.3531,20.2691,6.329,17.246,6.329,13.516C6.329,9.787,9.352,6.7639,13.0821,6.7639C16.8119,6.7639,19.8341,9.787,19.8341,13.516C19.8341,17.246,16.8119,20.2691,13.0821,20.2691Z"/>
</svg>